<mxfile host="www.draw.io" modified="2019-12-05T00:16:47.853Z" agent="Mozilla/5.0 (Windows NT 10.0; Win64; x64) AppleWebKit/537.36 (KHTML, like Gecko) Chrome/78.0.3904.108 Safari/537.36" etag="d4H8JDqM0j54LjCMUMpr" version="12.3.6" type="github" pages="1">
  <diagram id="Qe_kFQsv77TcXIZieA6y" name="Page-1">
    <mxGraphModel dx="1455" dy="743" grid="1" gridSize="10" guides="1" tooltips="1" connect="1" arrows="1" fold="1" page="1" pageScale="1" pageWidth="827" pageHeight="1169" math="0" shadow="0">
      <root>
        <mxCell id="0"/>
        <mxCell id="1" parent="0"/>
        <mxCell id="I41NudkYdVC86vhsTia9-98" value="" style="rounded=1;whiteSpace=wrap;html=1;fillColor=#d5e8d4;fontFamily=Verdana;fontSize=9;align=left;strokeColor=#82b366;" vertex="1" parent="1">
          <mxGeometry x="80" width="870" height="610" as="geometry"/>
        </mxCell>
        <mxCell id="I41NudkYdVC86vhsTia9-13" value="&lt;font style=&quot;font-size: 9px&quot;&gt;into&lt;/font&gt;" style="edgeStyle=orthogonalEdgeStyle;rounded=0;orthogonalLoop=1;jettySize=auto;html=1;endArrow=block;endFill=1;fontFamily=Verdana;fontSize=13;entryX=1;entryY=0.75;entryDx=0;entryDy=0;" edge="1" parent="1" target="I41NudkYdVC86vhsTia9-64">
          <mxGeometry x="-0.6063" relative="1" as="geometry">
            <mxPoint x="769" y="330" as="sourcePoint"/>
            <mxPoint x="720" y="230" as="targetPoint"/>
            <Array as="points">
              <mxPoint x="777" y="330"/>
              <mxPoint x="777" y="246"/>
            </Array>
            <mxPoint as="offset"/>
          </mxGeometry>
        </mxCell>
        <mxCell id="4T156BfcHiUWpnBwVR0s-76" style="edgeStyle=orthogonalEdgeStyle;rounded=0;orthogonalLoop=1;jettySize=auto;html=1;exitX=0.5;exitY=0;exitDx=0;exitDy=0;fontFamily=Verdana;fontSize=8;entryX=0.5;entryY=1;entryDx=0;entryDy=0;" parent="1" source="4T156BfcHiUWpnBwVR0s-35" target="I41NudkYdVC86vhsTia9-6" edge="1">
          <mxGeometry relative="1" as="geometry"/>
        </mxCell>
        <mxCell id="4T156BfcHiUWpnBwVR0s-77" value="from" style="text;html=1;align=center;verticalAlign=middle;resizable=0;points=[];;labelBackgroundColor=#ffffff;fontSize=8;fontFamily=Verdana;" parent="4T156BfcHiUWpnBwVR0s-76" vertex="1" connectable="0">
          <mxGeometry x="-0.4062" y="-9" relative="1" as="geometry">
            <mxPoint as="offset"/>
          </mxGeometry>
        </mxCell>
        <mxCell id="I41NudkYdVC86vhsTia9-51" value="" style="group" vertex="1" connectable="0" parent="1">
          <mxGeometry x="374" y="50" width="207" height="100" as="geometry"/>
        </mxCell>
        <mxCell id="I41NudkYdVC86vhsTia9-45" value="" style="group" vertex="1" connectable="0" parent="I41NudkYdVC86vhsTia9-51">
          <mxGeometry width="207" height="100.00000000000001" as="geometry"/>
        </mxCell>
        <mxCell id="I41NudkYdVC86vhsTia9-15" value="" style="group" vertex="1" connectable="0" parent="I41NudkYdVC86vhsTia9-45">
          <mxGeometry width="207" height="100.00000000000004" as="geometry"/>
        </mxCell>
        <mxCell id="I41NudkYdVC86vhsTia9-41" value="" style="group" vertex="1" connectable="0" parent="I41NudkYdVC86vhsTia9-15">
          <mxGeometry width="207" height="100.00000000000004" as="geometry"/>
        </mxCell>
        <mxCell id="4T156BfcHiUWpnBwVR0s-59" value="" style="rounded=1;whiteSpace=wrap;html=1;fillColor=#fff2cc;fontFamily=Verdana;fontSize=8;align=left;strokeColor=#d6b656;" parent="I41NudkYdVC86vhsTia9-41" vertex="1">
          <mxGeometry width="207.00000000000003" height="100" as="geometry"/>
        </mxCell>
        <mxCell id="I41NudkYdVC86vhsTia9-14" value="" style="group" vertex="1" connectable="0" parent="I41NudkYdVC86vhsTia9-41">
          <mxGeometry y="18.750000000000004" width="207.00000000000003" height="81.24999999999999" as="geometry"/>
        </mxCell>
        <mxCell id="4T156BfcHiUWpnBwVR0s-10" value="PnLArchive.pnl_backup" style="text;html=1;strokeColor=none;fillColor=none;align=center;verticalAlign=middle;whiteSpace=wrap;rounded=0;fontFamily=Verdana;fontSize=12;fontStyle=1" parent="I41NudkYdVC86vhsTia9-14" vertex="1">
          <mxGeometry width="207.00000000000003" height="49.99999999999999" as="geometry"/>
        </mxCell>
        <mxCell id="4T156BfcHiUWpnBwVR0s-60" value="+part.key" style="text;html=1;strokeColor=none;fillColor=none;align=center;verticalAlign=middle;whiteSpace=wrap;rounded=0;fontFamily=Verdana;fontSize=8;" parent="I41NudkYdVC86vhsTia9-14" vertex="1">
          <mxGeometry x="150.98823529411766" y="31.249999999999996" width="48.70588235294119" height="49.99999999999999" as="geometry"/>
        </mxCell>
        <mxCell id="I41NudkYdVC86vhsTia9-59" style="edgeStyle=orthogonalEdgeStyle;rounded=0;orthogonalLoop=1;jettySize=auto;html=1;exitX=1;exitY=0.25;exitDx=0;exitDy=0;endArrow=block;endFill=1;strokeWidth=1;fontFamily=Verdana;fontSize=9;" edge="1" parent="1" source="4T156BfcHiUWpnBwVR0s-8">
          <mxGeometry relative="1" as="geometry">
            <mxPoint x="370" y="78" as="targetPoint"/>
          </mxGeometry>
        </mxCell>
        <mxCell id="4T156BfcHiUWpnBwVR0s-8" value="" style="rounded=1;whiteSpace=wrap;html=1;" parent="1" vertex="1">
          <mxGeometry x="160" y="54" width="140" height="96" as="geometry"/>
        </mxCell>
        <mxCell id="4T156BfcHiUWpnBwVR0s-7" value="" style="ellipse;whiteSpace=wrap;html=1;aspect=fixed;fillColor=#dae8fc;strokeColor=#6c8ebf;" parent="1" vertex="1">
          <mxGeometry x="162.9090909090909" y="14" width="52" height="52" as="geometry"/>
        </mxCell>
        <mxCell id="4T156BfcHiUWpnBwVR0s-6" value="&lt;font&gt;&lt;b&gt;&lt;font style=&quot;font-size: 16px&quot;&gt;1&lt;/font&gt;&lt;/b&gt;&lt;br style=&quot;font-size: 10px&quot;&gt;&amp;nbsp;Backup data&amp;nbsp;&lt;br style=&quot;font-size: 10px&quot;&gt;&lt;br&gt;&lt;/font&gt;" style="text;html=1;strokeColor=none;fillColor=none;align=center;verticalAlign=middle;whiteSpace=wrap;rounded=0;fontFamily=Verdana;fontStyle=0;fontSize=10;" parent="1" vertex="1">
          <mxGeometry x="160" y="20" width="60" height="53" as="geometry"/>
        </mxCell>
        <mxCell id="4T156BfcHiUWpnBwVR0s-9" value="CREATE" style="text;html=1;strokeColor=none;fillColor=none;align=center;verticalAlign=middle;whiteSpace=wrap;rounded=0;fontFamily=Verdana;fontStyle=4;fontSize=10;" parent="1" vertex="1">
          <mxGeometry x="205.6" y="60.5" width="54.72" height="20" as="geometry"/>
        </mxCell>
        <mxCell id="4T156BfcHiUWpnBwVR0s-12" value="INSERT" style="text;html=1;strokeColor=none;fillColor=none;align=center;verticalAlign=middle;whiteSpace=wrap;rounded=0;fontFamily=Verdana;fontStyle=4;fontSize=10;" parent="1" vertex="1">
          <mxGeometry x="204.16" y="97" width="57.599999999999994" height="20" as="geometry"/>
        </mxCell>
        <mxCell id="4T156BfcHiUWpnBwVR0s-16" value="- EoD &amp;lt; 2017-01-01&lt;br&gt;- EoD =2015-08-31&lt;br&gt;- NoQuarterEnd" style="text;strokeColor=none;fillColor=none;align=left;verticalAlign=middle;whiteSpace=wrap;rounded=0;fontFamily=Helvetica;fontSize=7;html=1;" parent="1" vertex="1">
          <mxGeometry x="221" y="107" width="70" height="40" as="geometry"/>
        </mxCell>
        <mxCell id="4T156BfcHiUWpnBwVR0s-74" value="from" style="edgeStyle=orthogonalEdgeStyle;rounded=0;orthogonalLoop=1;jettySize=auto;html=1;fontFamily=Verdana;fontSize=8;entryX=0.5;entryY=0;entryDx=0;entryDy=0;" parent="1" target="I41NudkYdVC86vhsTia9-6" edge="1">
          <mxGeometry x="0.3885" relative="1" as="geometry">
            <mxPoint x="233" y="150" as="sourcePoint"/>
            <mxPoint x="250" y="350" as="targetPoint"/>
            <Array as="points"/>
            <mxPoint as="offset"/>
          </mxGeometry>
        </mxCell>
        <mxCell id="I41NudkYdVC86vhsTia9-54" value="" style="endArrow=none;html=1;strokeWidth=3;fontFamily=Verdana;fontSize=9;entryX=0.995;entryY=0.399;entryDx=0;entryDy=0;entryPerimeter=0;" edge="1" parent="1" target="4T156BfcHiUWpnBwVR0s-8">
          <mxGeometry width="50" height="50" relative="1" as="geometry">
            <mxPoint x="160" y="93" as="sourcePoint"/>
            <mxPoint x="240" y="93" as="targetPoint"/>
          </mxGeometry>
        </mxCell>
        <mxCell id="I41NudkYdVC86vhsTia9-60" value="" style="group" vertex="1" connectable="0" parent="1">
          <mxGeometry x="374" y="170" width="207" height="100" as="geometry"/>
        </mxCell>
        <mxCell id="I41NudkYdVC86vhsTia9-61" value="" style="group" vertex="1" connectable="0" parent="I41NudkYdVC86vhsTia9-60">
          <mxGeometry width="207" height="100.00000000000001" as="geometry"/>
        </mxCell>
        <mxCell id="I41NudkYdVC86vhsTia9-62" value="" style="group" vertex="1" connectable="0" parent="I41NudkYdVC86vhsTia9-61">
          <mxGeometry width="207" height="100.00000000000004" as="geometry"/>
        </mxCell>
        <mxCell id="I41NudkYdVC86vhsTia9-63" value="" style="group" vertex="1" connectable="0" parent="I41NudkYdVC86vhsTia9-62">
          <mxGeometry width="207" height="100.00000000000004" as="geometry"/>
        </mxCell>
        <mxCell id="I41NudkYdVC86vhsTia9-64" value="" style="rounded=1;whiteSpace=wrap;html=1;fillColor=#fff2cc;fontFamily=Verdana;fontSize=8;align=left;strokeColor=#d6b656;" vertex="1" parent="I41NudkYdVC86vhsTia9-63">
          <mxGeometry width="207.00000000000003" height="100" as="geometry"/>
        </mxCell>
        <mxCell id="I41NudkYdVC86vhsTia9-65" value="" style="group" vertex="1" connectable="0" parent="I41NudkYdVC86vhsTia9-63">
          <mxGeometry y="18.750000000000004" width="207.00000000000003" height="81.24999999999999" as="geometry"/>
        </mxCell>
        <mxCell id="I41NudkYdVC86vhsTia9-66" value="PnLArchive.Pnl_partitioned" style="text;html=1;strokeColor=none;fillColor=none;align=center;verticalAlign=middle;whiteSpace=wrap;rounded=0;fontFamily=Verdana;fontSize=12;fontStyle=1" vertex="1" parent="I41NudkYdVC86vhsTia9-65">
          <mxGeometry width="207.00000000000003" height="49.99999999999999" as="geometry"/>
        </mxCell>
        <mxCell id="I41NudkYdVC86vhsTia9-67" value="+part.key" style="text;html=1;strokeColor=none;fillColor=none;align=center;verticalAlign=middle;whiteSpace=wrap;rounded=0;fontFamily=Verdana;fontSize=8;" vertex="1" parent="I41NudkYdVC86vhsTia9-65">
          <mxGeometry x="150.98823529411766" y="31.249999999999996" width="48.70588235294119" height="49.99999999999999" as="geometry"/>
        </mxCell>
        <mxCell id="I41NudkYdVC86vhsTia9-69" value="" style="group" vertex="1" connectable="0" parent="1">
          <mxGeometry x="670" y="20" width="140" height="140" as="geometry"/>
        </mxCell>
        <mxCell id="4T156BfcHiUWpnBwVR0s-64" value="" style="rounded=1;whiteSpace=wrap;html=1;" parent="I41NudkYdVC86vhsTia9-69" vertex="1">
          <mxGeometry x="10" y="64" width="130" height="76" as="geometry"/>
        </mxCell>
        <mxCell id="4T156BfcHiUWpnBwVR0s-68" value="CREATE" style="text;html=1;strokeColor=none;fillColor=none;align=center;verticalAlign=middle;whiteSpace=wrap;rounded=0;fontFamily=Verdana;fontStyle=4;fontSize=10;" parent="I41NudkYdVC86vhsTia9-69" vertex="1">
          <mxGeometry x="63" y="94.2173144876325" width="36" height="20.070671378091873" as="geometry"/>
        </mxCell>
        <mxCell id="I41NudkYdVC86vhsTia9-68" value="" style="group" vertex="1" connectable="0" parent="I41NudkYdVC86vhsTia9-69">
          <mxGeometry width="81" height="81" as="geometry"/>
        </mxCell>
        <mxCell id="4T156BfcHiUWpnBwVR0s-65" value="" style="ellipse;whiteSpace=wrap;html=1;aspect=fixed;fillColor=#dae8fc;strokeColor=#6c8ebf;" parent="I41NudkYdVC86vhsTia9-68" vertex="1">
          <mxGeometry width="81" height="81" as="geometry"/>
        </mxCell>
        <mxCell id="4T156BfcHiUWpnBwVR0s-66" value="&lt;font&gt;&lt;b&gt;&lt;font style=&quot;font-size: 16px&quot;&gt;4&lt;/font&gt;&lt;/b&gt;&lt;br style=&quot;font-size: 10px&quot;&gt;&amp;nbsp;Create partitioned &lt;br&gt;PnLArchive&lt;br&gt;&lt;/font&gt;" style="text;html=1;strokeColor=none;fillColor=none;align=center;verticalAlign=middle;whiteSpace=wrap;rounded=0;fontFamily=Verdana;fontStyle=0;fontSize=10;" parent="I41NudkYdVC86vhsTia9-68" vertex="1">
          <mxGeometry y="4" width="78" height="73" as="geometry"/>
        </mxCell>
        <mxCell id="I41NudkYdVC86vhsTia9-70" style="edgeStyle=orthogonalEdgeStyle;rounded=0;orthogonalLoop=1;jettySize=auto;html=1;exitX=0.5;exitY=1;exitDx=0;exitDy=0;entryX=1;entryY=0.5;entryDx=0;entryDy=0;endArrow=block;endFill=1;strokeWidth=1;fontFamily=Verdana;fontSize=9;" edge="1" parent="1" source="4T156BfcHiUWpnBwVR0s-64" target="I41NudkYdVC86vhsTia9-66">
          <mxGeometry relative="1" as="geometry">
            <Array as="points">
              <mxPoint x="780" y="160"/>
              <mxPoint x="780" y="214"/>
            </Array>
          </mxGeometry>
        </mxCell>
        <mxCell id="I41NudkYdVC86vhsTia9-94" style="edgeStyle=orthogonalEdgeStyle;rounded=0;orthogonalLoop=1;jettySize=auto;html=1;exitX=0;exitY=0.5;exitDx=0;exitDy=0;endArrow=block;endFill=1;strokeWidth=1;fontFamily=Verdana;fontSize=9;entryX=1;entryY=0.5;entryDx=0;entryDy=0;" edge="1" parent="1" source="4T156BfcHiUWpnBwVR0s-90" target="I41NudkYdVC86vhsTia9-6">
          <mxGeometry relative="1" as="geometry">
            <mxPoint x="340" y="370.2941176470589" as="targetPoint"/>
            <Array as="points">
              <mxPoint x="680" y="369"/>
            </Array>
          </mxGeometry>
        </mxCell>
        <mxCell id="4T156BfcHiUWpnBwVR0s-90" value="" style="rounded=1;whiteSpace=wrap;html=1;" parent="1" vertex="1">
          <mxGeometry x="680" y="330" width="140" height="80" as="geometry"/>
        </mxCell>
        <mxCell id="4T156BfcHiUWpnBwVR0s-91" value="" style="ellipse;whiteSpace=wrap;html=1;aspect=fixed;fillColor=#dae8fc;strokeColor=#6c8ebf;" parent="1" vertex="1">
          <mxGeometry x="670" y="260.5" width="90" height="90" as="geometry"/>
        </mxCell>
        <mxCell id="4T156BfcHiUWpnBwVR0s-92" value="&lt;font&gt;&lt;b&gt;&lt;font style=&quot;font-size: 16px&quot;&gt;6&lt;/font&gt;&lt;/b&gt;&lt;br style=&quot;font-size: 9px&quot;&gt;&amp;nbsp;TRAN: PnLArchive data to partitioned&lt;br style=&quot;font-size: 9px&quot;&gt;&lt;/font&gt;" style="text;html=1;strokeColor=none;fillColor=none;align=center;verticalAlign=middle;whiteSpace=wrap;rounded=0;fontFamily=Verdana;fontStyle=0;fontSize=9;" parent="1" vertex="1">
          <mxGeometry x="681.5" y="275" width="67" height="65" as="geometry"/>
        </mxCell>
        <mxCell id="I41NudkYdVC86vhsTia9-21" value="" style="group" vertex="1" connectable="0" parent="1">
          <mxGeometry x="729.7890625" y="350.70212765957444" width="37.79296875" height="18.43971631205674" as="geometry"/>
        </mxCell>
        <mxCell id="4T156BfcHiUWpnBwVR0s-94" value="INSERT" style="text;html=1;strokeColor=none;fillColor=none;align=center;verticalAlign=middle;whiteSpace=wrap;rounded=0;fontFamily=Verdana;fontStyle=4;fontSize=10;" parent="I41NudkYdVC86vhsTia9-21" vertex="1">
          <mxGeometry width="37.79296875" height="18.43971631205674" as="geometry"/>
        </mxCell>
        <mxCell id="4T156BfcHiUWpnBwVR0s-81" value="into" style="edgeStyle=orthogonalEdgeStyle;rounded=0;orthogonalLoop=1;jettySize=auto;html=1;fontFamily=Verdana;fontSize=12;entryX=1;entryY=0.5;entryDx=0;entryDy=0;exitX=0.5;exitY=1;exitDx=0;exitDy=0;" parent="1" source="4T156BfcHiUWpnBwVR0s-78" target="I41NudkYdVC86vhsTia9-81" edge="1">
          <mxGeometry relative="1" as="geometry">
            <mxPoint x="329.5" y="1077.5" as="targetPoint"/>
            <mxPoint x="844" y="820" as="sourcePoint"/>
            <Array as="points">
              <mxPoint x="780" y="810"/>
              <mxPoint x="780" y="843"/>
            </Array>
          </mxGeometry>
        </mxCell>
        <mxCell id="4T156BfcHiUWpnBwVR0s-88" style="edgeStyle=orthogonalEdgeStyle;rounded=0;orthogonalLoop=1;jettySize=auto;html=1;exitX=0.75;exitY=0;exitDx=0;exitDy=0;entryX=1;entryY=0.5;entryDx=0;entryDy=0;fontFamily=Verdana;fontSize=8;endArrow=block;endFill=1;" parent="1" source="4T156BfcHiUWpnBwVR0s-78" target="4T156BfcHiUWpnBwVR0s-87" edge="1">
          <mxGeometry relative="1" as="geometry">
            <mxPoint x="-244.9285714285711" y="504.7857142857142" as="targetPoint"/>
          </mxGeometry>
        </mxCell>
        <mxCell id="4T156BfcHiUWpnBwVR0s-89" value="from" style="text;html=1;align=center;verticalAlign=middle;resizable=0;points=[];;labelBackgroundColor=#ffffff;fontSize=8;fontFamily=Verdana;" parent="4T156BfcHiUWpnBwVR0s-88" vertex="1" connectable="0">
          <mxGeometry x="-0.2366" relative="1" as="geometry">
            <mxPoint as="offset"/>
          </mxGeometry>
        </mxCell>
        <mxCell id="I41NudkYdVC86vhsTia9-38" value="" style="group" vertex="1" connectable="0" parent="1">
          <mxGeometry x="170" y="630" width="117.5" height="52" as="geometry"/>
        </mxCell>
        <mxCell id="I41NudkYdVC86vhsTia9-5" value="" style="rounded=0;whiteSpace=wrap;html=1;fillColor=#ffffff;fontFamily=Verdana;fontSize=20;align=left;" vertex="1" parent="I41NudkYdVC86vhsTia9-38">
          <mxGeometry x="0.5" y="3.5" width="117" height="47" as="geometry"/>
        </mxCell>
        <mxCell id="4T156BfcHiUWpnBwVR0s-87" value="PnL.Pnl" style="text;html=1;strokeColor=none;fillColor=none;align=center;verticalAlign=middle;whiteSpace=wrap;rounded=0;fontFamily=Verdana;fontStyle=1;fontSize=20;" parent="I41NudkYdVC86vhsTia9-38" vertex="1">
          <mxGeometry width="117" height="52" as="geometry"/>
        </mxCell>
        <mxCell id="I41NudkYdVC86vhsTia9-75" value="" style="group" vertex="1" connectable="0" parent="1">
          <mxGeometry x="392.5" y="799.5" width="207" height="100" as="geometry"/>
        </mxCell>
        <mxCell id="I41NudkYdVC86vhsTia9-76" value="" style="group" vertex="1" connectable="0" parent="I41NudkYdVC86vhsTia9-75">
          <mxGeometry width="207" height="100.00000000000001" as="geometry"/>
        </mxCell>
        <mxCell id="I41NudkYdVC86vhsTia9-77" value="" style="group" vertex="1" connectable="0" parent="I41NudkYdVC86vhsTia9-76">
          <mxGeometry width="207" height="100.00000000000004" as="geometry"/>
        </mxCell>
        <mxCell id="I41NudkYdVC86vhsTia9-78" value="" style="group" vertex="1" connectable="0" parent="I41NudkYdVC86vhsTia9-77">
          <mxGeometry width="207" height="100.00000000000004" as="geometry"/>
        </mxCell>
        <mxCell id="I41NudkYdVC86vhsTia9-79" value="" style="rounded=1;whiteSpace=wrap;html=1;fillColor=#fff2cc;fontFamily=Verdana;fontSize=8;align=left;strokeColor=#d6b656;" vertex="1" parent="I41NudkYdVC86vhsTia9-78">
          <mxGeometry width="207.00000000000003" height="100" as="geometry"/>
        </mxCell>
        <mxCell id="I41NudkYdVC86vhsTia9-80" value="" style="group" vertex="1" connectable="0" parent="I41NudkYdVC86vhsTia9-78">
          <mxGeometry y="18.750000000000004" width="207.00000000000003" height="81.24999999999999" as="geometry"/>
        </mxCell>
        <mxCell id="I41NudkYdVC86vhsTia9-81" value="PnL.Pnl_partitioned" style="text;html=1;strokeColor=none;fillColor=none;align=center;verticalAlign=middle;whiteSpace=wrap;rounded=0;fontFamily=Verdana;fontSize=12;fontStyle=1" vertex="1" parent="I41NudkYdVC86vhsTia9-80">
          <mxGeometry width="207.00000000000003" height="49.99999999999999" as="geometry"/>
        </mxCell>
        <mxCell id="I41NudkYdVC86vhsTia9-82" value="+part.key" style="text;html=1;strokeColor=none;fillColor=none;align=center;verticalAlign=middle;whiteSpace=wrap;rounded=0;fontFamily=Verdana;fontSize=8;" vertex="1" parent="I41NudkYdVC86vhsTia9-80">
          <mxGeometry x="150.98823529411766" y="31.249999999999996" width="48.70588235294119" height="49.99999999999999" as="geometry"/>
        </mxCell>
        <mxCell id="I41NudkYdVC86vhsTia9-86" style="edgeStyle=orthogonalEdgeStyle;rounded=0;orthogonalLoop=1;jettySize=auto;html=1;exitX=1;exitY=0.5;exitDx=0;exitDy=0;entryX=0;entryY=0.75;entryDx=0;entryDy=0;endArrow=block;endFill=1;strokeWidth=1;fontFamily=Verdana;fontSize=9;" edge="1" parent="1" source="4T156BfcHiUWpnBwVR0s-45" target="I41NudkYdVC86vhsTia9-81">
          <mxGeometry relative="1" as="geometry"/>
        </mxCell>
        <mxCell id="4T156BfcHiUWpnBwVR0s-35" value="" style="rounded=1;whiteSpace=wrap;html=1;" parent="1" vertex="1">
          <mxGeometry x="134.5" y="487.5" width="197" height="87" as="geometry"/>
        </mxCell>
        <mxCell id="4T156BfcHiUWpnBwVR0s-36" value="" style="ellipse;whiteSpace=wrap;html=1;aspect=fixed;fillColor=#dae8fc;strokeColor=#6c8ebf;" parent="1" vertex="1">
          <mxGeometry x="137" y="436" width="78" height="78" as="geometry"/>
        </mxCell>
        <mxCell id="4T156BfcHiUWpnBwVR0s-37" value="&lt;font&gt;&lt;b&gt;&lt;font style=&quot;font-size: 16px&quot;&gt;2&lt;/font&gt;&lt;/b&gt;&lt;br style=&quot;font-size: 10px&quot;&gt;&amp;nbsp;Delete data from origin&lt;br&gt;&lt;br&gt;&lt;/font&gt;" style="text;html=1;strokeColor=none;fillColor=none;align=center;verticalAlign=middle;whiteSpace=wrap;rounded=0;fontFamily=Verdana;fontStyle=0;fontSize=10;" parent="1" vertex="1">
          <mxGeometry x="137.5" y="453.5" width="80" height="39" as="geometry"/>
        </mxCell>
        <mxCell id="4T156BfcHiUWpnBwVR0s-39" value="DELETE" style="text;html=1;strokeColor=none;fillColor=none;align=center;verticalAlign=middle;whiteSpace=wrap;rounded=0;fontFamily=Verdana;fontStyle=4;fontSize=10;" parent="1" vertex="1">
          <mxGeometry x="187.5" y="504.5" width="80" height="18" as="geometry"/>
        </mxCell>
        <mxCell id="4T156BfcHiUWpnBwVR0s-43" value="- EoD &amp;lt; 2017-01-01&lt;br&gt;- EoD =2015-08-31&lt;br&gt;- NoQuarterEnd" style="text;strokeColor=none;fillColor=none;align=left;verticalAlign=middle;whiteSpace=wrap;rounded=0;fontFamily=Helvetica;fontSize=7;html=1;" parent="1" vertex="1">
          <mxGeometry x="217.5" y="522.5" width="90" height="40" as="geometry"/>
        </mxCell>
        <mxCell id="4T156BfcHiUWpnBwVR0s-45" value="" style="rounded=1;whiteSpace=wrap;html=1;" parent="1" vertex="1">
          <mxGeometry x="143" y="812.5" width="200" height="87" as="geometry"/>
        </mxCell>
        <mxCell id="4T156BfcHiUWpnBwVR0s-46" value="" style="ellipse;whiteSpace=wrap;html=1;aspect=fixed;fillColor=#dae8fc;strokeColor=#6c8ebf;" parent="1" vertex="1">
          <mxGeometry x="147" y="758.5" width="78" height="78" as="geometry"/>
        </mxCell>
        <mxCell id="4T156BfcHiUWpnBwVR0s-47" value="&lt;font&gt;&lt;b&gt;&lt;font style=&quot;font-size: 16px&quot;&gt;3&lt;/font&gt;&lt;/b&gt;&lt;br style=&quot;font-size: 10px&quot;&gt;&amp;nbsp;Create partitioned &lt;br&gt;PnL&lt;br&gt;&lt;/font&gt;" style="text;html=1;strokeColor=none;fillColor=none;align=center;verticalAlign=middle;whiteSpace=wrap;rounded=0;fontFamily=Verdana;fontStyle=0;fontSize=10;" parent="1" vertex="1">
          <mxGeometry x="146" y="778" width="80" height="39" as="geometry"/>
        </mxCell>
        <mxCell id="4T156BfcHiUWpnBwVR0s-49" value="CREATE" style="text;html=1;strokeColor=none;fillColor=none;align=center;verticalAlign=middle;whiteSpace=wrap;rounded=0;fontFamily=Verdana;fontStyle=4;fontSize=10;" parent="1" vertex="1">
          <mxGeometry x="225" y="846" width="45" height="20" as="geometry"/>
        </mxCell>
        <mxCell id="I41NudkYdVC86vhsTia9-6" value="" style="rounded=0;whiteSpace=wrap;html=1;fillColor=#ffffff;fontFamily=Verdana;fontSize=20;align=left;" vertex="1" parent="1">
          <mxGeometry x="143" y="349" width="180" height="40" as="geometry"/>
        </mxCell>
        <mxCell id="4T156BfcHiUWpnBwVR0s-1" value="&lt;font style=&quot;font-size: 20px&quot;&gt;PnLArchive.Pnl&lt;/font&gt;" style="text;html=1;strokeColor=none;fillColor=none;align=center;verticalAlign=middle;whiteSpace=wrap;rounded=0;fontFamily=Verdana;fontStyle=1" parent="1" vertex="1">
          <mxGeometry x="153" y="350.5" width="160" height="40" as="geometry"/>
        </mxCell>
        <mxCell id="4T156BfcHiUWpnBwVR0s-78" value="" style="rounded=1;whiteSpace=wrap;html=1;" parent="1" vertex="1">
          <mxGeometry x="660" y="726" width="160" height="84" as="geometry"/>
        </mxCell>
        <mxCell id="4T156BfcHiUWpnBwVR0s-82" value="INSERT" style="text;html=1;strokeColor=none;fillColor=none;align=center;verticalAlign=middle;whiteSpace=wrap;rounded=0;fontFamily=Verdana;fontStyle=4;fontSize=10;" parent="1" vertex="1">
          <mxGeometry x="705.5" y="752" width="74" height="32" as="geometry"/>
        </mxCell>
        <mxCell id="4T156BfcHiUWpnBwVR0s-79" value="" style="ellipse;whiteSpace=wrap;html=1;aspect=fixed;fillColor=#dae8fc;strokeColor=#6c8ebf;" parent="1" vertex="1">
          <mxGeometry x="662.5" y="680.5" width="78" height="78" as="geometry"/>
        </mxCell>
        <mxCell id="4T156BfcHiUWpnBwVR0s-80" value="&lt;font&gt;&lt;b&gt;&lt;font style=&quot;font-size: 16px&quot;&gt;5&lt;/font&gt;&lt;/b&gt;&lt;br style=&quot;font-size: 10px&quot;&gt;&amp;nbsp;TRAN: PnL data to partitioned&lt;br&gt;&lt;/font&gt;" style="text;html=1;strokeColor=none;fillColor=none;align=center;verticalAlign=middle;whiteSpace=wrap;rounded=0;fontFamily=Verdana;fontStyle=0;fontSize=10;" parent="1" vertex="1">
          <mxGeometry x="662.5" y="690" width="80" height="39" as="geometry"/>
        </mxCell>
      </root>
    </mxGraphModel>
  </diagram>
</mxfile>
